<svg xmlns="http://www.w3.org/2000/svg" viewBox="0 0 213 115">
  <style>
    .st0{fill:#fbbf14}.st1{fill:#010101}.st2{fill:#273238}
  </style>
  <path class="st0" d="M197.8 22.4v-.7c-.2.1-.2-.1-.2-.2-.5-2.6-1.5-4.9-3.2-6.9-1.9-2.3-4.3-3.9-7.1-4.9-1.4-.5-3-.7-4.5-.7h-152c-2.7 0-5.2.8-7.5 2.2-2.6 1.6-4.6 3.8-5.9 6.7-.5 1.1-.9 2.3-1.1 3.6 0 .2 0 .2-.2.3v.7h.1l-.1.1v63.8l.1.1c0 .1 0 .1-.1 0v.8c.2-.1.2 0 .2.2.4 2.3 1.3 4.3 2.6 6.2 1.2 1.7 2.7 3.1 4.5 4.1 1.9 1.2 3.9 1.8 6.1 2.1.6.1 1.2.1 1.8.1h151.5c3.4 0 6.5-1.1 9.2-3.2 2-1.5 3.4-3.4 4.5-5.6.6-1.2 1-2.4 1.2-3.7 0-.2 0-.2.2-.3v-.8h-.1l.1-.1V22.5c-.2 0-.2 0-.1-.1-.1 0-.1 0 0 0z"/>
  <path class="st1" d="M16 22.4s.1 0 0 0c.1.1 0 .1 0 .1v-.1zM197.8 22.5c-.1 0-.1 0 0 0-.1-.1 0-.1 0-.1v.1zM16 86.4s.1 0 0 0c.1.1 0 .1 0 .1v-.1zM197.8 86.5c-.1 0-.1 0 0 0-.1-.1 0-.1 0-.1v.1z"/>
  <path class="st0" d="M120.2 52.4V36.2c0-.5.1-.6.6-.6 1.1 0 2.2 0 3.2.5.8.4 1.1 1 1.1 1.8v28.8c0 1.6-.9 2.2-2.1 2.5-.8.2-1.5.1-2.3.1-.4 0-.5-.1-.5-.5v-5.4-11zM157.7 56.1v-13c0-1.2.5-1.3 1.1-1.4.9-.1 1.4.3 1.7 1.2.1.3.1.7.1 1v25.9c0 .9-.2 1.2-.9 1.4-.7.2-1.2 0-1.6-.6-.3-.4-.4-.8-.4-1.3V56.1z"/>
  <path class="st2" d="M82.2 51.5c.4-1.8.5-3.5.8-5.3.2-1.4.3-2.7.5-4.1.2-1.3.4-2.6.5-3.9.1-1 .2-2 .4-3 .1-1.1.2-2.1.4-3.2.2-1 .3-2.1.4-3.1.1-.9 0-.9.9-.9h15.3c.5 0 .6.1.6.6v49.2c0 .4-.1.6-.5.6h-9.6c-.5 0-.6-.1-.6-.6V51.6 51h-.1c-.4 2.1-.7 4.1-1.1 6.2-.3 1.8-.7 3.7-1 5.5-.3 1.8-.6 3.7-.9 5.5-.3 1.6-.6 3.2-.8 4.8-.3 1.7-.6 3.3-.9 5-.1.4-.2.5-.6.5h-6.8c-.2 0-.4 0-.4-.3-.4-2.6-.9-5.2-1.4-7.8-.5-2.7-1-5.3-1.5-8-.5-2.8-.9-5.6-1.5-8.4-.2-1-.3-2-.6-3.1v27c0 .5-.1.7-.6.7h-9.8c-.5 0-.6-.1-.6-.6V28.8c0-.4.1-.6.5-.6h14.1c.3 0 .5 0 .6.4.3 2.1.7 4.2 1.1 6.3.4 2.3.8 4.5 1.2 6.8.3 1.9.6 3.7.9 5.6.6 1.3.9 2.8 1.1 4.2zM108.4 52.8V28.6c0-.6.2-.7.7-.7h16.1c2.3 0 4.6.1 6.8 1 1.8.8 3.6 1.7 4.8 3.4.8 1.1 1.2 2.4 1.5 3.8.3 1.7.2 3.3.2 5v27c0 2.4-.8 4.6-2.7 6.2-1.3 1.1-2.9 1.8-4.5 2.2-2.2.6-4.5.9-6.8.9-5.2.2-10.3 0-15.5.1-.5 0-.4-.3-.4-.6-.2-7.9-.2-16-.2-24.1zm11.8-.4v16.4c0 .4.1.5.5.5.8 0 1.5 0 2.3-.1 1.2-.3 2.1-.9 2.1-2.5V37.9c0-.9-.4-1.4-1.1-1.8-1-.5-2.1-.4-3.2-.5-.5 0-.6.1-.6.6v16.2zM156.9 39.3c1.9-1.3 3.9-2.5 6.1-3.1 2.8-.7 5.2-.1 7.4 1.7 1.6 1.3 2.4 3 2.4 5.1v29.7c0 2.8-2.2 4.6-4.3 5-1.5.3-3 .3-4.5.2-1.5-.1-2.9-.6-4.3-1.1-1.1-.4-2.3-.8-3.5-1.1-.5-.1-.7.1-.9.4-.3.6-.5 1.2-.6 1.8-.1.3-.2.4-.5.4h-9.9c-.3 0-.4-.1-.4-.3v-.3-49c0-.6.1-.7.7-.7H156c.7 0 .7 0 .7.8.2 3.4.2 6.9.2 10.5zm.8 16.8v13.1c0 .5.1.9.4 1.3.4.6 1 .8 1.6.6.7-.2.9-.5.9-1.4V43.8c0-.4 0-.7-.1-1-.3-.8-.8-1.3-1.7-1.2-.6.1-1.1.3-1.1 1.4v13.1zM44.7 53.1V28.6c0-.5.1-.6.6-.6H56c.5 0 .5.1.5.6v49.2c0 .5-.1.6-.6.6H45.2c-.5 0-.6-.1-.6-.6.1-8.3.1-16.5.1-24.7z"/>
</svg>
